<?xml version="1.0" encoding="UTF-8"?>
<svg xmlns="http://www.w3.org/2000/svg" xmlns:xlink="http://www.w3.org/1999/xlink" width="375pt" height="374.999991pt" viewBox="0 0 375 374.999991" version="1.2">
<defs>
<clipPath id="clip1">
  <path d="M 125 97.425781 L 185 97.425781 L 185 138 L 125 138 Z M 125 97.425781 "/>
</clipPath>
<clipPath id="clip2">
  <path d="M 243 138 L 260.757812 138 L 260.757812 203 L 243 203 Z M 243 138 "/>
</clipPath>
<clipPath id="clip3">
  <path d="M 125 203 L 185 203 L 185 243.675781 L 125 243.675781 Z M 125 203 "/>
</clipPath>
<clipPath id="clip4">
  <path d="M 191 203 L 250 203 L 250 243.675781 L 191 243.675781 Z M 191 203 "/>
</clipPath>
<clipPath id="clip5">
  <path d="M 114.507812 138 L 132 138 L 132 203 L 114.507812 203 Z M 114.507812 138 "/>
</clipPath>
</defs>
<g id="surface1">
<g clip-path="url(#clip1)" clip-rule="nonzero">
<path style=" stroke:none;fill-rule:nonzero;fill:rgb(11.369324%,11.369324%,11.369324%);fill-opacity:1;" d="M 125.390625 132.207031 L 134.839844 137.378906 C 145.542969 120.257812 163.914062 109.375 184.066406 108.308594 L 184.066406 97.605469 C 159.988281 98.675781 138.050781 111.695312 125.390625 132.207031 Z M 125.390625 132.207031 "/>
</g>
<g clip-path="url(#clip2)" clip-rule="nonzero">
<path style=" stroke:none;fill-rule:nonzero;fill:rgb(11.369324%,11.369324%,11.369324%);fill-opacity:1;" d="M 253.269531 138.449219 L 243.816406 143.621094 C 247.917969 152.003906 250.058594 161.277344 250.058594 170.550781 C 250.058594 179.828125 247.917969 189.101562 243.816406 197.484375 L 253.269531 202.65625 C 258.082031 192.667969 260.757812 181.609375 260.757812 170.550781 C 260.757812 159.496094 258.082031 148.257812 253.269531 138.449219 Z M 253.269531 138.449219 "/>
</g>
<g clip-path="url(#clip3)" clip-rule="nonzero">
<path style=" stroke:none;fill-rule:nonzero;fill:rgb(11.369324%,11.369324%,11.369324%);fill-opacity:1;" d="M 134.839844 203.726562 L 125.566406 208.898438 C 138.050781 229.410156 159.988281 242.429688 184.066406 243.5 L 184.066406 232.796875 C 163.914062 231.726562 145.542969 220.847656 134.839844 203.726562 Z M 134.839844 203.726562 "/>
</g>
<g clip-path="url(#clip4)" clip-rule="nonzero">
<path style=" stroke:none;fill-rule:nonzero;fill:rgb(11.369324%,11.369324%,11.369324%);fill-opacity:1;" d="M 191.203125 232.796875 L 191.203125 243.5 C 215.277344 242.25 237.214844 229.410156 249.878906 208.898438 L 240.605469 203.726562 C 229.726562 220.847656 211.355469 231.726562 191.203125 232.796875 Z M 191.203125 232.796875 "/>
</g>
<g clip-path="url(#clip5)" clip-rule="nonzero">
<path style=" stroke:none;fill-rule:nonzero;fill:rgb(11.369324%,11.369324%,11.369324%);fill-opacity:1;" d="M 125.210938 170.550781 C 125.210938 161.277344 127.351562 152.003906 131.453125 143.621094 L 122 138.449219 C 117.183594 148.257812 114.507812 159.316406 114.507812 170.550781 C 114.507812 181.789062 117.183594 192.847656 122 202.65625 L 131.273438 197.484375 C 127.351562 189.101562 125.210938 179.828125 125.210938 170.550781 Z M 125.210938 170.550781 "/>
</g>
<path style=" stroke:none;fill-rule:nonzero;fill:rgb(11.369324%,11.369324%,11.369324%);fill-opacity:1;" d="M 234.183594 200.335938 L 191.203125 176.617188 L 191.203125 225.664062 C 208.679688 224.59375 224.730469 215.140625 234.183594 200.335938 Z M 212.605469 208.71875 C 212.605469 208.898438 212.425781 209.253906 212.425781 209.433594 C 212.425781 209.613281 212.246094 209.789062 212.070312 209.96875 C 211.890625 210.148438 211.890625 210.324219 211.710938 210.503906 C 211.355469 210.859375 211 211.039062 210.640625 211.21875 C 209.929688 211.574219 209.570312 211.574219 209.035156 211.574219 C 208.5 211.574219 208.144531 211.574219 207.609375 211.21875 C 207.253906 211.039062 206.71875 210.859375 206.539062 210.503906 C 206.359375 210.324219 206.183594 210.148438 206.003906 209.96875 C 205.828125 209.789062 205.828125 209.613281 205.648438 209.433594 C 205.46875 209.253906 205.46875 209.078125 205.46875 208.71875 C 205.46875 208.542969 205.46875 208.183594 205.46875 208.007812 C 205.46875 207.113281 205.828125 206.222656 206.539062 205.507812 C 206.71875 205.332031 206.894531 205.152344 207.074219 205.152344 C 207.253906 204.972656 207.429688 204.972656 207.609375 204.796875 C 207.789062 204.796875 207.964844 204.617188 208.324219 204.617188 C 208.859375 204.617188 209.214844 204.617188 209.75 204.617188 C 209.929688 204.617188 210.105469 204.796875 210.464844 204.796875 C 210.640625 204.972656 210.820312 204.972656 211 205.152344 C 211.175781 205.332031 211.355469 205.507812 211.535156 205.507812 C 212.246094 206.222656 212.605469 207.113281 212.605469 208.007812 C 212.605469 208.183594 212.605469 208.542969 212.605469 208.71875 Z M 212.605469 208.71875 "/>
<path style=" stroke:none;fill-rule:nonzero;fill:rgb(11.369324%,11.369324%,11.369324%);fill-opacity:1;" d="M 141.082031 140.765625 L 184.066406 164.488281 L 184.066406 115.441406 C 166.589844 116.511719 150.535156 125.964844 141.082031 140.765625 Z M 163.734375 130.601562 C 163.914062 130.421875 164.089844 130.246094 164.269531 130.246094 C 164.449219 130.066406 164.625 130.066406 164.804688 129.886719 C 164.984375 129.886719 165.160156 129.710938 165.519531 129.710938 C 166.765625 129.53125 167.835938 129.886719 168.730469 130.601562 C 169.441406 131.3125 169.796875 132.207031 169.796875 133.097656 C 169.796875 133.988281 169.441406 134.882812 168.730469 135.59375 C 168.015625 136.308594 167.125 136.664062 166.230469 136.664062 C 166.054688 136.664062 165.695312 136.664062 165.519531 136.664062 C 165.339844 136.664062 165.160156 136.488281 164.804688 136.488281 C 164.625 136.488281 164.449219 136.308594 164.269531 136.128906 C 164.089844 135.953125 163.914062 135.953125 163.734375 135.773438 C 163.019531 134.882812 162.664062 133.988281 162.664062 133.097656 C 162.664062 132.207031 163.019531 131.3125 163.734375 130.601562 Z M 163.734375 130.601562 "/>
<path style=" stroke:none;fill-rule:nonzero;fill:rgb(11.369324%,11.369324%,11.369324%);fill-opacity:1;" d="M 242.921875 170.550781 C 242.921875 162.347656 241.140625 154.320312 237.574219 147.007812 L 194.945312 170.550781 L 237.574219 194.09375 C 241.140625 186.78125 242.921875 178.757812 242.921875 170.550781 Z M 232.222656 171.265625 C 232.222656 171.445312 232.042969 171.800781 232.042969 171.980469 C 232.042969 172.15625 231.867188 172.335938 231.6875 172.515625 C 231.507812 172.691406 231.507812 172.871094 231.332031 173.050781 C 230.972656 173.40625 230.617188 173.585938 230.261719 173.761719 C 229.546875 174.121094 229.191406 174.121094 228.65625 174.121094 C 228.121094 174.121094 227.765625 174.121094 227.230469 173.761719 C 226.871094 173.585938 226.335938 173.40625 226.160156 173.050781 C 225.980469 172.871094 225.800781 172.691406 225.625 172.515625 C 225.445312 172.335938 225.445312 172.15625 225.265625 171.980469 C 225.089844 171.800781 225.089844 171.621094 225.089844 171.265625 C 225.089844 171.085938 225.089844 170.730469 225.089844 170.550781 C 225.089844 169.660156 225.445312 168.769531 226.160156 168.054688 C 226.335938 167.875 226.515625 167.699219 226.695312 167.699219 C 226.871094 167.519531 227.050781 167.519531 227.230469 167.34375 C 227.40625 167.34375 227.585938 167.164062 227.941406 167.164062 C 228.476562 167.164062 228.832031 167.164062 229.367188 167.164062 C 229.546875 167.164062 229.726562 167.34375 230.082031 167.34375 C 230.261719 167.519531 230.4375 167.519531 230.617188 167.699219 C 230.796875 167.875 230.972656 168.054688 231.152344 168.054688 C 231.867188 168.769531 232.222656 169.660156 232.222656 170.550781 C 232.222656 170.730469 232.222656 171.085938 232.222656 171.265625 Z M 232.222656 171.265625 "/>
<path style=" stroke:none;fill-rule:nonzero;fill:rgb(11.369324%,11.369324%,11.369324%);fill-opacity:1;" d="M 184.066406 225.664062 L 184.066406 176.617188 L 141.082031 200.335938 C 150.535156 215.140625 166.589844 224.59375 184.066406 225.664062 Z M 163.734375 205.507812 C 163.914062 205.332031 164.089844 205.152344 164.269531 205.152344 C 164.449219 204.972656 164.625 204.972656 164.804688 204.796875 C 164.984375 204.796875 165.160156 204.617188 165.519531 204.617188 C 166.054688 204.617188 166.410156 204.617188 166.945312 204.617188 C 167.125 204.617188 167.300781 204.796875 167.660156 204.796875 C 167.835938 204.972656 168.015625 204.972656 168.195312 205.152344 C 168.371094 205.332031 168.550781 205.507812 168.730469 205.507812 C 169.441406 206.222656 169.796875 207.113281 169.796875 208.007812 C 169.796875 208.183594 169.796875 208.542969 169.796875 208.71875 C 169.796875 208.898438 169.621094 209.253906 169.621094 209.433594 C 169.621094 209.613281 169.441406 209.789062 169.265625 209.96875 C 169.085938 210.148438 168.90625 210.324219 168.90625 210.503906 C 168.550781 210.859375 168.195312 211.039062 167.835938 211.21875 C 167.125 211.574219 166.765625 211.574219 166.230469 211.574219 C 165.339844 211.574219 164.449219 211.21875 163.734375 210.503906 C 163.554688 210.324219 163.378906 210.148438 163.378906 209.96875 C 163.199219 209.789062 163.199219 209.613281 163.019531 209.433594 C 162.84375 209.253906 162.84375 209.078125 162.84375 208.71875 C 162.84375 208.542969 162.84375 208.183594 162.84375 208.007812 C 162.664062 207.113281 163.019531 206.222656 163.734375 205.507812 Z M 163.734375 205.507812 "/>
<path style=" stroke:none;fill-rule:nonzero;fill:rgb(11.369324%,11.369324%,11.369324%);fill-opacity:1;" d="M 180.320312 170.550781 L 137.695312 147.007812 C 134.304688 154.320312 132.34375 162.347656 132.34375 170.550781 C 132.34375 178.757812 134.128906 186.78125 137.695312 194.09375 Z M 144.117188 168.054688 C 145.363281 166.628906 147.859375 166.628906 149.109375 168.054688 C 149.289062 168.234375 149.464844 168.410156 149.464844 168.589844 C 149.644531 168.769531 149.644531 168.945312 149.824219 169.125 C 150 169.304688 150 169.480469 150 169.839844 C 150 170.015625 150 170.375 150 170.550781 C 150 171.085938 150 171.445312 149.644531 171.980469 C 149.464844 172.335938 149.289062 172.871094 148.929688 173.050781 C 148.753906 173.226562 148.574219 173.40625 148.394531 173.40625 C 148.21875 173.585938 148.039062 173.585938 147.863281 173.761719 C 147.683594 173.941406 147.503906 173.941406 147.148438 173.941406 C 146.96875 173.941406 146.613281 173.941406 146.433594 173.941406 C 145.542969 173.941406 144.652344 173.585938 143.9375 172.871094 C 143.402344 172.335938 143.046875 171.445312 143.046875 170.550781 C 143.046875 169.660156 143.402344 168.769531 144.117188 168.054688 Z M 144.117188 168.054688 "/>
</g>
</svg>
